<?xml version="1.0" encoding="UTF-8"?>
<svg version="1.1" viewBox="0 0 1920 1248" width="1920" height="1248" xmlns="http://www.w3.org/2000/svg">
<path transform="translate(0)" d="m0 0h1920v1248h-1920z" fill="#FEFEFE"/>
<path transform="translate(392,457)" d="m0 0 10 1 8 4 6 7 3 8v9l-4 9-2 4 14 14h9l7 3 5 5 2 5v10l8 8 5-1 11-8h2l-2-8 1-10 4-8 7-6 10-3 10 1 8 5 5 6 3 8v9l-4 9-9 8-6 2h-9l-2 6-7 14 2 6 4 2 7 6 14-12 2-10 7-8 6-2 9 1 6 4 4 8v8l-5 8-8 4h-7l-6-1-12 10 6 7 9 9 8-2 11 1 8 5 5 6 3 8v8l-3 8-4 6-9 5-6 2-6 15 1 5 3 6v7l-4 8-6 4-3 1h-7l-8-4-4-6-1-9 3-7 7-6 6-1 3-9 2-5v-3l-8-7-3-6-1-10 2-11-15-15-8 6-15 13-11 9-4 2 1 3v8l-3 6 2 6 12 23 12 22 7 13 12-1 9 3 8 7 4 10v8l-3 8-7 8-9 4h-10l-10-5-6-7-4-10-66-42-3-2-9 1v49l6 2 7 8 3 8v8l-3 8-7 8-9 4h-10l-10-5-6-7-3-8v-7l4-11 8-7 5-2v-52l-19 13-47 32h-2l-1 8-4 7-8 7-6 2h-10l-10-5-6-7-3-8v-7l4-11 8-7 10-3h9l21-42 10-21-3-12-15-12-24-18-4 1-9 9 3 9v9l-4 9-5 5-1 3 6 13v3l9 2 5 5 3 6v7l-4 8-8 5h-8l-8-4-4-6-1-9 3-7 1-3-7-16v-2l-9-1-8-5-5-6-3-8v-7l4-11 8-7 9-3 11 1 5 1 9-9-5-5-14-11h-12l-8-4-4-6-1-9 3-6 7-6 10-1 7 3 5 5 2 5v8l11 9 9 7 4-2 13-13-12-24-10-3-6-4-5-6-3-9 1-10 4-8 7-6 10-3 9 1 8 4 6 7 3 8v9l-2 7 15 10 4-1 8-8v-11l3-6 7-6 9-1 5 1 10-10h2v-2l4-3-5-10-1-11 3-9 7-8z" fill="#29317C"/>
<path transform="translate(1101,543)" d="m0 0h105l16 3 13 5 11 8 7 10 4 11v18l-3 10-7 11-10 8-6 3 3 2 15 8 9 9 5 9 2 8v20l-4 12-7 10-10 8-13 6-11 3-15 2h-104z" fill="#29317C"/>
<path transform="translate(623,543)" d="m0 0h48l22 28 42 54 10 13 1-95h51v184h-45l-10-12-12-16-13-16-9-12-14-18-11-14-9-12-1 100h-50z" fill="#29317C"/>
<path transform="translate(1347,582)" d="m0 0h24l17 4 16 8 9 7 9 9 7 11 5 11 3 12v23l-4 15-7 14-9 11-9 8-14 8-13 5-11 2h-23l-17-4-16-8-8-6-5-5-8-9-7-12-5-17-1-15 2-15 4-12 6-11 7-9 7-7 13-9 15-6z" fill="#29317C"/>
<path transform="translate(881,582)" d="m0 0h23l16 4 14 7 12 11 7 10 6 13 4 17 1 10v15h-95l4 11 4 5 8 5 7 2h15l13-5 10-8 4 2 13 11 11 9-4 6-7 7-11 7-10 5-18 4h-22l-15-3-13-5-11-7-10-9-9-14-5-13-2-10-1-16 2-16 4-12 5-10 6-8 7-8 13-9 12-5z" fill="#29317C"/>
<path transform="translate(1616,582)" d="m0 0h19l17 3 18 6 11 6 1 4-12 22-4 7-19-8-15-4h-14l-4 2-1 6 4 4 38 13 17 9 7 7 5 10 2 11-1 13-4 12-8 11-13 8-11 4-12 2h-20l-14-2-14-4-15-6-13-8 1-4 12-20 5-7 16 8 14 5 9 2h16l5-3 1-5-5-5-18-6-17-5-16-8-10-9-5-10-2-9v-9l3-14 6-10 5-5 8-6 9-4 11-3z" fill="#29317C"/>
<path transform="translate(1467,549)" d="m0 0h50v36h33v40l-33 1 1 54 4 5 2 1h14l11-3v39l-8 4-12 3-10 1h-9l-14-2-12-5-9-8-5-10-2-6-1-7v-67h-17v-40h17z" fill="#29317C"/>
<path transform="translate(994,549)" d="m0 0h50v36h33v40l-33 1v46l2 10 5 4h14l11-3v39l-8 4-13 3-9 1h-9l-14-2-10-4-9-7-6-9-3-9-1-7v-67h-17v-40h17z" fill="#29317C"/>
<path transform="translate(388,504)" d="m0 0 13 1 17 17v11l4 8 8 4h11l7 7-1 3-27 18-13 9-4-1-6-2-9 1-4 3-5-2-16-10-25-16v-3l7-7h13l8-5 3-7v-11l7-7 8-7z" fill="#FEFEFE"/>
<path transform="translate(1352,624)" d="m0 0h13l10 4 6 5 6 10 2 8v11l-3 10-6 8-8 6-7 2h-12l-10-4-6-5-6-10-2-7v-13l4-11 8-9 8-4z" fill="#FEFEFE"/>
<path transform="translate(388,611)" d="m0 0h11l14 11 15 11v13l-25 17-11-1-5 2-4-1-25-17-1-3v-11l24-16z" fill="#FEFEFE"/>
<path transform="translate(1150,652)" d="m0 0h47l10 3 5 4 3 8-1 8-4 6-8 4-5 1h-46z" fill="#FEFEFE"/>
<path transform="translate(345,655)" d="m0 0 7 1 11 8 15 10-1 4-15 10-22 15-25 17-4 3-4-2 9-20 22-44z" fill="#FEFEFE"/>
<path transform="translate(436,655)" d="m0 0 8 1 5 8 14 27 12 22 4 8v3l-6-2-20-13-19-12-23-15-1-9 15-11z" fill="#FEFEFE"/>
<path transform="translate(327,563)" d="m0 0 12 7 17 11 22 14 2 7-14 10-17 11-7-1-6-10-13-25-6-11 1-5 8-7z" fill="#FEFEFE"/>
<path transform="translate(457,563)" d="m0 0 4 2 6 6-1 6-18 36-4 9-9 2-15-12-11-8 2-10 25-17z" fill="#FEFEFE"/>
<path transform="translate(1151,584)" d="m0 0h41l10 4 4 5 1 3v8l-3 6-8 5-4 1h-41z" fill="#FEFEFE"/>
<path transform="translate(890,618)" d="m0 0 10 1 7 4 6 7 4 10v4h-49l1-7 5-10 8-7z" fill="#FEFEFE"/>
<path transform="translate(305,584)" d="m0 0 3 1 15 29 3 5-1 2-18-14-13-10 2-4z" fill="#FEFEFE"/>
<path transform="translate(477,582)" d="m0 0 7 6 3 4-11 10-11 9-1-2z" fill="#FEFEFE"/>
<path transform="translate(303,548)" d="m0 0 11 6 3 2v2l-7 5-7-13z" fill="#FEFEFE"/>
<path transform="translate(477,549)" d="m0 0 2 1-5 9-5-4z" fill="#FEFEFE"/>
</svg>
